<svg width="19" height="18" viewBox="0 0 19 18" fill="none" xmlns="http://www.w3.org/2000/svg">
<path d="M1.2046 16.6955L1.18848 16.694L1.17229 16.6939C1.04761 16.6932 0.925502 16.6665 0.815122 16.6167C0.704793 16.567 0.610054 16.496 0.536622 16.4105C0.463281 16.3252 0.412931 16.2276 0.387266 16.1255C0.361802 16.0241 0.360827 15.9192 0.384355 15.8175L1.44328 11.564L10.1322 3.46665L14.6439 7.65635L5.95532 15.7125L1.36184 16.6971C1.30949 16.7009 1.25686 16.7004 1.2046 16.6955Z" fill="#B4B4B4" stroke="#B4B4B4" stroke-width="0.734819"/>
<path d="M17.7765 3.72793L17.7776 3.729C17.8527 3.79827 17.9108 3.87919 17.95 3.96638C17.9892 4.05348 18.0091 4.14588 18.0095 4.23852C18.0098 4.33117 17.9906 4.42366 17.9521 4.51095C17.9135 4.59822 17.8562 4.67935 17.7818 4.74898C17.7817 4.74907 17.7816 4.74917 17.7815 4.74926L16.1579 6.26041L11.6506 2.0653L13.2356 0.590116C13.2357 0.590012 13.2358 0.589907 13.2359 0.589803C13.3871 0.449982 13.5968 0.36741 13.8204 0.36741C14.0439 0.36741 14.2537 0.449986 14.4048 0.589812C14.4049 0.589914 14.405 0.590015 14.4052 0.590116L17.7765 3.72793Z" fill="#B4B4B4" stroke="#B4B4B4" stroke-width="0.734819"/>
</svg>
